<?xml version="1.0" encoding="iso-8859-1"?>
<!-- Generator: Adobe Illustrator 19.0.0, SVG Export Plug-In . SVG Version: 6.00 Build 0)  -->
<svg version="1.1" id="Layer_1" xmlns="http://www.w3.org/2000/svg" xmlns:xlink="http://www.w3.org/1999/xlink" x="0px" y="0px"
	 viewBox="0 0 512 512" style="enable-background:new 0 0 512 512;" xml:space="preserve">
<path style="fill:#37474F;" d="M503.467,38.4v264.533H8.533V38.4c0.026-9.412,7.654-17.041,17.067-17.067h460.8
	C495.812,21.359,503.441,28.988,503.467,38.4z"/>
<path style="fill:#607D8B;" d="M469.333,38.4v264.533H8.533V38.4c-0.29-9.088,6.81-16.708,15.889-17.067h429.022
	C462.524,21.692,469.624,29.312,469.333,38.4z"/>
<path style="fill:#F5F5F5;" d="M179.2,200.533c0,37.7-30.566,68.267-68.267,68.267s-68.267-30.566-68.267-68.267
	s30.566-68.267,68.267-68.267v68.267H179.2z"/>
<path style="fill:#FFFFFF;" d="M145.067,200.533c0,37.717-22.912,68.267-51.2,68.267s-51.2-30.549-51.2-68.267
	s34.731-68.267,63.019-68.267v68.267H145.067z"/>
<path style="fill:#C52828;" d="M213.333,166.4h-68.267V98.133c37.692-0.009,68.258,30.541,68.267,68.233
	C213.333,166.374,213.333,166.391,213.333,166.4z"/>
<path style="fill:#F44335;" d="M179.2,166.4h-34.133V98.133C163.925,98.133,179.2,128.683,179.2,166.4z"/>
<g>
	<path style="fill:#CDDC39;" d="M392.533,277.333h-17.067c-4.71,0-8.533-3.823-8.533-8.533v-128c0-4.71,3.823-8.533,8.533-8.533
		h17.067c4.71,0,8.533,3.823,8.533,8.533v128C401.067,273.51,397.244,277.333,392.533,277.333z"/>
	<path style="fill:#CDDC39;" d="M460.8,277.333h-17.067c-4.71,0-8.533-3.823-8.533-8.533V72.533c0-4.71,3.823-8.533,8.533-8.533
		H460.8c4.71,0,8.533,3.823,8.533,8.533V268.8C469.333,273.51,465.51,277.333,460.8,277.333z"/>
	<path style="fill:#CDDC39;" d="M324.267,277.333H307.2c-4.71,0-8.533-3.823-8.533-8.533v-51.2c0-4.71,3.823-8.533,8.533-8.533
		h17.067c4.71,0,8.533,3.823,8.533,8.533v51.2C332.8,273.51,328.977,277.333,324.267,277.333z"/>
	<path style="fill:#CDDC39;" d="M256,277.333h-17.067c-4.71,0-8.533-3.823-8.533-8.533v-34.133c0-4.71,3.823-8.533,8.533-8.533H256
		c4.71,0,8.533,3.823,8.533,8.533V268.8C264.533,273.51,260.71,277.333,256,277.333z"/>
</g>
<path style="fill:#607D8B;" d="M503.467,302.933V396.8c-0.026,9.412-7.654,17.041-17.067,17.067H25.6
	c-9.412-0.026-17.041-7.654-17.067-17.067v-93.867H503.467z"/>
<path style="fill:#CFD8DC;" d="M469.333,302.933V396.8c-0.026,9.412-7.654,17.041-17.067,17.067H25.6
	c-9.412-0.026-17.041-7.654-17.067-17.067v-93.867H469.333z"/>
<circle style="fill:#37474F;" cx="256" cy="358.4" r="21.333"/>
<path style="fill:#607D8B;" d="M358.4,490.667H153.6c34.133,0,34.133-34.133,34.133-34.133v-42.667h136.533v42.667
	C324.267,456.533,324.267,490.667,358.4,490.667z"/>
<path style="fill:#CFD8DC;" d="M325.461,490.667H186.539c0.708-2.79,1.109-5.658,1.195-8.533v-42.667h136.533v42.667
	C324.352,485.009,324.753,487.876,325.461,490.667z"/>
<path d="M486.4,422.4H25.6C11.486,422.4,0,410.914,0,396.8V38.4c0-14.114,11.486-25.6,25.6-25.6h460.8
	c14.114,0,25.6,11.486,25.6,25.6v358.4C512,410.914,500.514,422.4,486.4,422.4z M25.6,29.867c-4.702,0-8.533,3.831-8.533,8.533
	v358.4c0,4.71,3.831,8.533,8.533,8.533h460.8c4.71,0,8.533-3.823,8.533-8.533V38.4c0-4.702-3.823-8.533-8.533-8.533H25.6z"/>
<path d="M503.467,311.467H8.533c-4.71,0-8.533-3.814-8.533-8.533s3.823-8.533,8.533-8.533h494.933c4.719,0,8.533,3.814,8.533,8.533
	S508.186,311.467,503.467,311.467z"/>
<path d="M256,388.267c-16.469,0-29.867-13.397-29.867-29.867s13.397-29.867,29.867-29.867c16.469,0,29.867,13.397,29.867,29.867
	S272.469,388.267,256,388.267z M256,345.6c-7.057,0-12.8,5.743-12.8,12.8s5.743,12.8,12.8,12.8c7.057,0,12.8-5.743,12.8-12.8
	S263.057,345.6,256,345.6z"/>
<path d="M153.6,499.2c-4.71,0-8.533-3.814-8.533-8.533c0-4.719,3.823-8.533,8.533-8.533c24.09,0,25.549-21.367,25.6-25.651v-42.615
	c0-4.719,3.823-8.533,8.533-8.533c4.71,0,8.533,3.814,8.533,8.533v42.667C196.267,471.288,187.349,499.2,153.6,499.2z"/>
<path d="M358.4,499.2c-33.749,0-42.667-27.913-42.667-42.667v-42.667c0-4.719,3.814-8.533,8.533-8.533
	c4.719,0,8.533,3.814,8.533,8.533v42.667c0.051,4.233,1.51,25.6,25.6,25.6c4.719,0,8.533,3.814,8.533,8.533
	C366.933,495.386,363.119,499.2,358.4,499.2z"/>
<path d="M409.6,499.2H102.4c-4.71,0-8.533-3.814-8.533-8.533c0-4.719,3.823-8.533,8.533-8.533h307.2
	c4.719,0,8.533,3.814,8.533,8.533C418.133,495.386,414.319,499.2,409.6,499.2z"/>
<path d="M221.867,456.533c-2.219,0-4.437-0.939-6.059-2.475c-1.536-1.621-2.475-3.84-2.475-6.059s0.939-4.446,2.475-6.059
	c3.157-3.157,8.96-3.157,12.117,0c1.536,1.613,2.475,3.84,2.475,6.059s-0.939,4.437-2.475,6.059
	C226.304,455.595,224.085,456.533,221.867,456.533z"/>
<path d="M256,456.533c-2.219,0-4.437-0.939-6.059-2.475c-1.536-1.621-2.475-3.84-2.475-6.059s0.939-4.446,2.475-6.059
	c3.157-3.157,8.96-3.157,12.117,0c1.536,1.613,2.475,3.84,2.475,6.059s-0.939,4.437-2.475,6.059
	C260.437,455.595,258.219,456.533,256,456.533z"/>
<path d="M290.133,456.533c-2.219,0-4.446-0.939-6.059-2.475c-1.545-1.621-2.475-3.84-2.475-6.059s0.93-4.446,2.475-6.059
	c3.157-3.157,8.96-3.157,12.117,0c1.536,1.613,2.475,3.84,2.475,6.059s-0.939,4.437-2.475,6.059
	C294.571,455.595,292.352,456.533,290.133,456.533z"/>
<path d="M42.667,81.067c-2.185,0-4.369-0.836-6.033-2.5c-3.337-3.337-3.337-8.73,0-12.066L53.7,49.434
	c3.337-3.337,8.73-3.337,12.066,0c3.337,3.337,3.337,8.73,0,12.066L48.7,78.566C47.036,80.23,44.851,81.067,42.667,81.067z"/>
<path d="M59.733,115.2c-2.185,0-4.369-0.836-6.033-2.5c-3.337-3.337-3.337-8.73,0-12.066l51.2-51.2c3.337-3.337,8.73-3.337,12.066,0
	c3.337,3.337,3.337,8.73,0,12.066l-51.2,51.2C64.102,114.364,61.918,115.2,59.733,115.2z"/>
<path d="M110.933,277.333c-42.342,0-76.8-34.458-76.8-76.8s34.458-76.8,76.8-76.8c4.71,0,8.533,3.823,8.533,8.533V192H179.2
	c4.71,0,8.533,3.823,8.533,8.533C187.733,242.876,153.276,277.333,110.933,277.333z M102.4,141.406
	c-28.911,4.156-51.2,29.082-51.2,59.127c0,32.939,26.795,59.733,59.733,59.733c30.046,0,54.972-22.289,59.127-51.2h-59.127
	c-4.71,0-8.533-3.823-8.533-8.533V141.406z"/>
<path d="M213.333,174.933h-68.267c-4.71,0-8.533-3.823-8.533-8.533V98.133c0-4.71,3.823-8.533,8.533-8.533c0.009,0,0.017,0,0.026,0
	c20.497,0,39.774,7.979,54.272,22.477c14.507,14.498,22.494,33.775,22.502,54.281c0,2.27-0.896,4.454-2.5,6.05
	C217.771,174.02,215.595,174.933,213.333,174.933z M153.6,157.867h50.603c-1.801-12.723-7.646-24.474-16.905-33.724
	c-9.242-9.242-20.983-15.078-33.698-16.879V157.867z"/>
<path d="M392.533,285.867h-17.067c-9.412,0-17.067-7.654-17.067-17.067v-128c0-9.412,7.654-17.067,17.067-17.067h17.067
	c9.412,0,17.067,7.654,17.067,17.067v128C409.6,278.212,401.946,285.867,392.533,285.867z M375.467,140.8v128h17.084l-0.017-128
	H375.467z"/>
<path d="M460.8,285.867h-17.067c-9.412,0-17.067-7.654-17.067-17.067V72.533c0-9.412,7.654-17.067,17.067-17.067H460.8
	c9.412,0,17.067,7.654,17.067,17.067V268.8C477.867,278.212,470.212,285.867,460.8,285.867z M443.733,72.533V268.8h17.084
	L460.8,72.533H443.733z"/>
<path d="M324.267,285.867H307.2c-9.412,0-17.067-7.654-17.067-17.067v-51.2c0-9.412,7.654-17.067,17.067-17.067h17.067
	c9.412,0,17.067,7.654,17.067,17.067v51.2C341.333,278.212,333.679,285.867,324.267,285.867z M307.2,217.6v51.2h17.084l-0.017-51.2
	H307.2z"/>
<path d="M256,285.867h-17.067c-9.412,0-17.067-7.654-17.067-17.067v-34.133c0-9.412,7.654-17.067,17.067-17.067H256
	c9.412,0,17.067,7.654,17.067,17.067V268.8C273.067,278.212,265.412,285.867,256,285.867z M238.933,234.667V268.8h17.084
	L256,234.667H238.933z"/>
<g>
</g>
<g>
</g>
<g>
</g>
<g>
</g>
<g>
</g>
<g>
</g>
<g>
</g>
<g>
</g>
<g>
</g>
<g>
</g>
<g>
</g>
<g>
</g>
<g>
</g>
<g>
</g>
<g>
</g>
</svg>
