<svg height="512pt" viewBox="0 0 512 512" width="512pt" xmlns="http://www.w3.org/2000/svg"><path d="m483.308594 512h-454.617188c-15.847656 0-28.691406-12.84375-28.691406-28.691406v-386.207032h512v386.207032c0 15.847656-12.84375 28.691406-28.691406 28.691406zm0 0" fill="#e7eced"/><path d="m467.863281 150.070312v203.03125h-423.726562v-203.03125zm0 0" fill="#dd352e"/><path d="m512 105.929688h-512v-77.238282c0-15.847656 12.84375-28.691406 28.691406-28.691406h454.617188c15.847656 0 28.691406 12.84375 28.691406 28.691406zm0 0" fill="#556080"/><path d="m35.308594 35.308594h35.3125v35.3125h-35.3125zm0 0" fill="#dd352e"/><path d="m105.929688 35.308594h35.3125v35.3125h-35.3125zm0 0" fill="#ebba16"/><path d="m176.550781 35.308594h35.3125v35.3125h-35.3125zm0 0" fill="#23a24d"/><path d="m291.308594 256-26.480469 17.65625-26.484375 17.652344v-70.617188l26.484375 17.652344zm0 0" fill="#fff"/><path d="m44.136719 388.414062h79.449219v79.449219h-79.449219zm0 0" fill="#366db6"/><path d="m388.414062 388.414062h79.449219v79.449219h-79.449219zm0 0" fill="#7fabda"/><path d="m273.65625 388.414062h79.445312v79.449219h-79.445312zm0 0" fill="#75348b"/><path d="m158.898438 388.414062h79.445312v79.449219h-79.445312zm0 0" fill="#ebba16"/></svg>