<svg height="512" viewBox="0 0 512 512" width="512" xmlns="http://www.w3.org/2000/svg"><g id="Fill_out_line" data-name="Fill out line"><path d="m368 184a55.99746 55.99746 0 0 1 -56 56h-232a56 56 0 1 1 0-112h1.45a88.01751 88.01751 0 0 1 170.87-41.24 32.00843 32.00843 0 0 1 47.4 41.24h12.28a55.993 55.993 0 0 1 56 56z" fill="#37a5ca"/><path d="m81.45 128a87.283 87.283 0 0 0 4.55 16l-14.91 5.82007a103.716 103.716 0 0 1 -5.56-19.93007 56.11243 56.11243 0 0 1 14.47-1.89z" fill="#2d80ba"/><path d="m271.58008 102.56006-15.94008 1.43994a87.43909 87.43909 0 0 0 -3.32-17.24 31.71725 31.71725 0 0 1 14.78-6.38 102.68293 102.68293 0 0 1 4.48008 22.18006z" fill="#2d80ba"/><rect fill="#91d3ee" height="256" rx="32" width="384" x="112" y="184"/><path d="m112 392h384a0 0 0 0 1 0 0v16a32 32 0 0 1 -32 32h-320a32 32 0 0 1 -32-32v-16a0 0 0 0 1 0 0z" fill="#37a5ca"/><path d="m152 216h304a8 8 0 0 1 8 8v168a0 0 0 0 1 0 0h-320a0 0 0 0 1 0 0v-168a8 8 0 0 1 8-8z" fill="#a9ca2a"/><path d="m280 440v16a32 32 0 0 1 -32 32h128a32 32 0 0 1 -32-32v-16z" fill="#91d3ee"/><path d="m192 312h32v48h-32z" fill="#eb4042"/><path d="m256 296h32v64h-32z" fill="#f5c533"/><path d="m320 280h32v80h-32z" fill="#34a066"/><path d="m384 248h32v112h-32z" fill="#37a5ca"/><path d="m224 368h-32a7.99977 7.99977 0 0 1 -8-8v-48a7.99977 7.99977 0 0 1 8-8h32a7.99977 7.99977 0 0 1 8 8v48a7.99977 7.99977 0 0 1 -8 8zm-24-16h16v-32h-16z"/><path d="m288 368h-32a7.99977 7.99977 0 0 1 -8-8v-64a7.99977 7.99977 0 0 1 8-8h32a7.99977 7.99977 0 0 1 8 8v64a7.99977 7.99977 0 0 1 -8 8zm-24-16h16v-48h-16z"/><path d="m352 368h-32a7.99977 7.99977 0 0 1 -8-8v-80a7.99977 7.99977 0 0 1 8-8h32a7.99977 7.99977 0 0 1 8 8v80a7.99977 7.99977 0 0 1 -8 8zm-24-16h16v-64h-16z"/><path d="m416 368h-32a7.99977 7.99977 0 0 1 -8-8v-112a7.99977 7.99977 0 0 1 8-8h32a7.99977 7.99977 0 0 1 8 8v112a7.99977 7.99977 0 0 1 -8 8zm-24-16h16v-96h-16z"/><circle cx="312" cy="416" r="8"/><path d="m464 176h-320a40.04022 40.04022 0 0 0 -40 40v192a40.04022 40.04022 0 0 0 40 40h128v8a24.03189 24.03189 0 0 1 -24 24 8 8 0 0 0 0 16h128a8 8 0 0 0 0-16 24.03189 24.03189 0 0 1 -24-24v-8h112a40.04018 40.04018 0 0 0 40-40v-192a40.04018 40.04018 0 0 0 -40-40zm-119.98 304h-64.04a39.80743 39.80743 0 0 0 8.02-24v-8h48v8a39.80743 39.80743 0 0 0 8.02 24zm143.98-72a24.03189 24.03189 0 0 1 -24 24h-320a24.03189 24.03189 0 0 1 -24-24v-8h368zm-336-24v-160h304v160zm336 0h-16v-160a16.02116 16.02116 0 0 0 -16-16h-304a16.02119 16.02119 0 0 0 -16 16v160h-16v-168a24.03189 24.03189 0 0 1 24-24h320a24.03189 24.03189 0 0 1 24 24z"/><path d="m369.84009 156.57007-14.46009 6.85986a48.01527 48.01527 0 0 0 -43.38-27.42993h-12.28a8 8 0 0 1 -6.93-12 24.02867 24.02867 0 0 0 -31.24-33.63 94.33035 94.33035 0 0 1 2.06 12.91l-15.94 1.44a80.004 80.004 0 1 0 -154.22 36.37l-14.9 5.81994a95.9954 95.9954 0 0 1 -3.46-10.65994 48.00051 48.00051 0 0 0 4.91 95.75h8v16h-8a63.99814 63.99814 0 0 1 -7.63-127.54q-.375-4.20007-.37-8.46a96.02329 96.02329 0 0 1 184.63-36.94995 40.00719 40.00719 0 0 1 54.55994 44.94995h.81006a64.07283 64.07283 0 0 1 57.84009 36.57007z"/></g></svg>